<svg width="20" height="20" viewBox="0 0 20 20" fill="none" xmlns="http://www.w3.org/2000/svg">
<g clip-path="url(#clip0_1112_823)">
<path d="M9.99199 1.6665C5.39199 1.6665 1.66699 5.39984 1.66699 9.99984C1.66699 14.5998 5.39199 18.3332 9.99199 18.3332C14.6003 18.3332 18.3337 14.5998 18.3337 9.99984C18.3337 5.39984 14.6003 1.6665 9.99199 1.6665ZM15.767 6.6665H13.3087C13.042 5.62484 12.6587 4.62484 12.1587 3.69984C13.692 4.22484 14.967 5.2915 15.767 6.6665ZM10.0003 3.3665C10.692 4.3665 11.2337 5.47484 11.592 6.6665H8.40866C8.76699 5.47484 9.30866 4.3665 10.0003 3.3665ZM3.55033 11.6665C3.41699 11.1332 3.33366 10.5748 3.33366 9.99984C3.33366 9.42484 3.41699 8.8665 3.55033 8.33317H6.36699C6.30033 8.88317 6.25033 9.43317 6.25033 9.99984C6.25033 10.5665 6.30033 11.1165 6.36699 11.6665H3.55033ZM4.23366 13.3332H6.69199C6.95866 14.3748 7.34199 15.3748 7.84199 16.2998C6.30866 15.7748 5.03366 14.7165 4.23366 13.3332ZM6.69199 6.6665H4.23366C5.03366 5.28317 6.30866 4.22484 7.84199 3.69984C7.34199 4.62484 6.95866 5.62484 6.69199 6.6665ZM10.0003 16.6332C9.30866 15.6332 8.76699 14.5248 8.40866 13.3332H11.592C11.2337 14.5248 10.692 15.6332 10.0003 16.6332ZM11.9503 11.6665H8.05033C7.97533 11.1165 7.91699 10.5665 7.91699 9.99984C7.91699 9.43317 7.97533 8.87484 8.05033 8.33317H11.9503C12.0253 8.87484 12.0837 9.43317 12.0837 9.99984C12.0837 10.5665 12.0253 11.1165 11.9503 11.6665ZM12.1587 16.2998C12.6587 15.3748 13.042 14.3748 13.3087 13.3332H15.767C14.967 14.7082 13.692 15.7748 12.1587 16.2998ZM13.6337 11.6665C13.7003 11.1165 13.7503 10.5665 13.7503 9.99984C13.7503 9.43317 13.7003 8.88317 13.6337 8.33317H16.4503C16.5837 8.8665 16.667 9.42484 16.667 9.99984C16.667 10.5748 16.5837 11.1332 16.4503 11.6665H13.6337Z" fill="black"/>
</g>
<defs>
<clipPath id="clip0_1112_823">
<rect width="20" height="20" fill="white"/>
</clipPath>
</defs>
</svg>
