<svg width="93" height="58" viewBox="0 0 93 58" fill="none" xmlns="http://www.w3.org/2000/svg">
<g id="Layer 2">
<g id="Layer 3">
<path id="Vector" d="M27.1153 22.9834C27.1523 23.0053 27.1945 23.0167 27.2375 23.0167C27.2811 23.0173 27.3241 23.0058 27.3616 22.9834L32.7606 19.8671C32.7978 19.8457 32.8287 19.8147 32.8501 19.7775C32.8716 19.7403 32.8828 19.6981 32.8827 19.6551V13.4206C32.8827 13.3777 32.8713 13.3357 32.8498 13.2986C32.8283 13.2615 32.7975 13.2307 32.7604 13.2094C32.7233 13.188 32.6812 13.1767 32.6383 13.1768C32.5955 13.1768 32.5534 13.1881 32.5163 13.2095L27.1173 16.3268C27.0802 16.3482 27.0494 16.3789 27.028 16.416C27.0065 16.453 26.9952 16.495 26.9951 16.5378V22.7724C26.995 22.815 27.006 22.8569 27.0271 22.8939C27.0482 22.9309 27.0786 22.9618 27.1153 22.9834ZM27.4818 16.961L32.1498 19.6502L27.4837 22.3443L27.4818 16.961ZM32.3922 19.232L27.7261 16.5339L32.3922 13.8398V19.232Z" fill="black"/>
<path id="Vector_2" d="M92.2661 35.2335V28.9999C92.266 28.9571 92.2547 28.9151 92.2333 28.878C92.2118 28.841 92.181 28.8102 92.144 28.7888L75.9518 19.44L59.7528 10.0843L43.5567 0.735408C43.5194 0.714249 43.4774 0.703125 43.4345 0.703125C43.3917 0.703125 43.3496 0.714249 43.3124 0.735408L37.9153 3.85267L21.8404 13.1361L5.76547 3.85365C5.7284 3.83201 5.68625 3.82061 5.64332 3.82061C5.6004 3.82061 5.55825 3.83201 5.52117 3.85365L0.12215 6.96994C0.0850737 6.99157 0.0542963 7.02252 0.0328699 7.05971C0.0114435 7.09691 0.000112364 7.13906 1.95221e-07 7.18199V32.1172C-2.76918e-05 32.1386 0.00293227 32.16 0.00879498 32.1807C0.0169865 32.2116 0.0312239 32.2405 0.0506821 32.2658C0.0701403 32.2912 0.0944322 32.3124 0.12215 32.3282L5.52117 35.4455C5.55837 35.4667 5.60049 35.4779 5.64332 35.4777C5.68614 35.4777 5.72822 35.4666 5.76547 35.4455L11.0423 32.3986L16.3192 35.4455C16.3564 35.4667 16.3985 35.4779 16.4414 35.4777C16.4842 35.4777 16.5263 35.4666 16.5635 35.4455L21.5961 32.5403V38.3536C21.5963 38.3964 21.6076 38.4384 21.6291 38.4754C21.6505 38.5125 21.6812 38.5432 21.7182 38.5647L27.1173 41.682C27.1544 41.7034 27.1965 41.7148 27.2394 41.7152C27.2823 41.7151 27.3245 41.7036 27.3616 41.682L32.7606 38.5647C32.7977 38.5434 32.8286 38.5127 32.85 38.4756C32.8715 38.4385 32.8827 38.3965 32.8827 38.3536V32.2598L38.0384 29.2813L54.1114 38.5647L70.3036 47.9126L75.7036 51.0289C75.7408 51.05 75.7829 51.0611 75.8257 51.0611C75.8686 51.0613 75.9107 51.0502 75.9479 51.0289L80.9805 48.1237V53.9341C80.9809 53.9776 80.9928 54.0201 81.0152 54.0574C81.0375 54.0947 81.0694 54.1253 81.1075 54.1462L86.5055 57.2634C86.5427 57.2848 86.5848 57.2963 86.6277 57.2966C86.6706 57.2965 86.7127 57.285 86.7498 57.2634L92.1488 54.1462C92.1859 54.1248 92.2167 54.094 92.2382 54.0569C92.2596 54.0199 92.2709 53.9779 92.271 53.9351L92.2661 35.2335ZM43.6808 25.7409V1.37059L59.3873 10.439V16.1067L48.9577 10.0843C48.9205 10.0628 48.8783 10.0515 48.8354 10.0515C48.7925 10.0516 48.7503 10.0629 48.7131 10.0844C48.676 10.1059 48.6452 10.1368 48.6237 10.174C48.6023 10.2112 48.5911 10.2534 48.5912 10.2963V16.5338V22.7673C48.5911 22.8103 48.6024 22.8525 48.6238 22.8898C48.6453 22.927 48.6761 22.9579 48.7134 22.9794L59.3863 29.1396V34.8074L47.6052 28.0061L43.6808 25.7409ZM59.142 16.5338L54.2345 19.3677L49.0808 16.3921V10.7243L59.142 16.5338ZM53.9873 19.7918V25.4595L49.0778 22.6256V16.9579L53.9873 19.7918ZM54.4759 19.7918L59.3853 16.9579V28.5758L54.4749 25.7419L54.4759 19.7918ZM59.6306 35.5168L63.557 37.7839L75.342 44.5794L70.4326 47.4133L54.7231 38.3497L59.6306 35.5168ZM81.4681 41.8921L86.1342 44.5862L81.469 47.2784L81.4681 41.8921ZM86.3785 45.0093V50.6771L81.469 53.511V47.8432L86.3785 45.0093ZM91.7775 29.1396V53.5119L86.8671 50.6781V44.5843C86.8673 44.5414 86.8561 44.4993 86.8346 44.4622C86.8132 44.4251 86.7822 44.3944 86.7449 44.3732L81.3459 41.2569C81.3087 41.2354 81.2666 41.2242 81.2237 41.2242C81.1807 41.2242 81.1386 41.2355 81.1014 41.257C81.0643 41.2785 81.0334 41.3094 81.012 41.3466C80.9906 41.3838 80.9794 41.426 80.9795 41.469V47.2804L76.0691 44.4465V20.0722L91.7775 29.1396ZM75.5814 44.1602L63.8013 37.3589L59.8749 35.0918V28.9989V16.5338V10.7214L75.5824 19.7898V44.1602H75.5814ZM43.1922 19.6491V25.7409L41.9648 26.4504L38.2818 28.5758V4.20544L43.1922 1.37059V19.6491ZM32.3922 32.2598V37.9276L28.7101 35.8041L27.4818 35.0947V29.4269L32.3922 32.2598ZM22.0847 37.9344V32.1172V13.5572L37.7912 4.48785V22.6266L27.1153 28.7898C27.0782 28.8114 27.0475 28.8424 27.026 28.8796C27.0046 28.9168 26.9933 28.9589 26.9932 29.0019V35.0947L25.7658 35.8041L22.0847 37.9344ZM10.9192 25.6716C10.8822 25.693 10.8515 25.7238 10.8301 25.7608C10.8086 25.7979 10.7973 25.8399 10.7971 25.8826V31.694L6.27948 29.0859L5.8886 28.8592V4.48785L21.5961 13.5563V31.694L11.1635 25.6716C11.1264 25.6499 11.0843 25.6385 11.0414 25.6385C10.9984 25.6385 10.9563 25.6499 10.9192 25.6716ZM5.39902 4.48785V28.8592L4.60163 29.3194L0.4886 31.694V7.3227L5.39902 4.48785ZM5.64332 34.952L0.732899 32.1181L5.64332 29.2843L10.1384 31.8807L10.5498 32.1191L5.64332 34.952ZM16.4404 34.952L11.2857 31.9735V26.3058L21.3508 32.1172L16.4404 34.952ZM27.2375 41.1885L22.327 38.3546L26.0101 36.2282L27.2375 35.5188L28.4658 36.2282L32.1498 38.3536L27.2375 41.1885ZM32.6384 31.8367L27.728 29.0028L37.7932 23.1914V28.8592L32.6384 31.8367ZM42.2091 26.8735L43.4365 26.1641L47.3629 28.4312L59.144 35.2325L54.2335 38.0664L38.5261 28.9979L42.2091 26.8735ZM75.8306 50.5403L70.9212 47.7064L75.8306 44.8725L77.058 45.581L80.7362 47.7064L75.8306 50.5403ZM86.6277 56.7738L81.7182 53.94L86.6277 51.1061L87.8502 51.8106L91.5322 53.937L86.6277 56.7738Z" fill="black"/>
<path id="Vector_3" d="M81.1075 35.4453L86.5055 38.5616C86.5425 38.5834 86.5847 38.5949 86.6277 38.5948C86.6707 38.5951 86.7129 38.5836 86.7498 38.5616C86.7871 38.5404 86.8181 38.5097 86.8395 38.4726C86.861 38.4355 86.8722 38.3933 86.872 38.3505V32.1169C86.8722 32.0739 86.861 32.0317 86.8395 31.9944C86.8181 31.9572 86.7871 31.9263 86.7498 31.9049L81.3518 28.7886C81.3147 28.7672 81.2726 28.7559 81.2298 28.7559C81.1869 28.7558 81.1448 28.7671 81.1077 28.7885C81.0706 28.8098 81.0397 28.8406 81.0183 28.8777C80.9968 28.9148 80.9854 28.9568 80.9854 28.9997V35.2332C80.9852 35.2762 80.9964 35.3185 81.0178 35.3557C81.0393 35.393 81.0702 35.4239 81.1075 35.4453ZM81.7183 35.2332L86.3834 32.5401V37.9274L81.7183 35.2332ZM86.1391 32.1169L81.4691 34.8072V29.4228L86.1391 32.1169Z" fill="black"/>
<path id="Vector_4" d="M70.5545 22.5546L65.1555 19.4373C65.1184 19.4157 65.0763 19.4043 65.0334 19.4043C64.9904 19.4043 64.9483 19.4157 64.9112 19.4373C64.8741 19.4589 64.8432 19.4898 64.8218 19.527C64.8004 19.5643 64.7891 19.6064 64.7891 19.6494V32.1165C64.7891 32.1593 64.8005 32.2013 64.8219 32.2384C64.8434 32.2754 64.8741 32.3062 64.9112 32.3276L70.3102 35.4448C70.3474 35.4661 70.3895 35.4773 70.4324 35.4771C70.4752 35.477 70.5173 35.4659 70.5545 35.4448C70.5917 35.4233 70.6225 35.3923 70.6439 35.3551C70.6654 35.3179 70.6767 35.2757 70.6767 35.2328V22.7657C70.6766 22.7229 70.6653 22.6808 70.6438 22.6438C70.6224 22.6068 70.5916 22.576 70.5545 22.5546ZM69.9438 22.7657L65.2777 25.4598V20.0725L69.9438 22.7657ZM65.2777 31.9738V26.0236L70.1881 23.1898V34.8077L65.2777 31.9738Z" fill="black"/>
<path id="Vector_5" d="M16.6845 16.5339C16.6845 16.491 16.6732 16.4488 16.6518 16.4116C16.6303 16.3744 16.5995 16.3434 16.5623 16.3219L11.1633 13.2056C11.1262 13.1842 11.0841 13.1729 11.0413 13.1729C10.9985 13.1728 10.9564 13.1841 10.9192 13.2055C10.8821 13.2268 10.8513 13.2576 10.8298 13.2947C10.8083 13.3317 10.797 13.3738 10.7969 13.4167V19.6502C10.7969 19.6932 10.8082 19.7353 10.8296 19.7726C10.8511 19.8098 10.8819 19.8407 10.919 19.8623L16.319 22.9776C16.356 22.9995 16.3982 23.011 16.4412 23.0108C16.4841 23.0109 16.5263 22.9994 16.5633 22.9776C16.6004 22.9562 16.6312 22.9254 16.6526 22.8884C16.6741 22.8513 16.6854 22.8093 16.6855 22.7665L16.6845 16.5339ZM15.9516 16.5339L11.2855 19.2271V13.8388L15.9516 16.5339ZM11.5308 19.6492L16.1969 16.9561V22.3434L11.5308 19.6492Z" fill="black"/>
</g>
</g>
</svg>
