<svg width="41" height="70" viewBox="0 0 41 70" fill="none" xmlns="http://www.w3.org/2000/svg">
<path d="M40.7953 6.20961C40.7954 6.13024 40.7746 6.05224 40.735 5.98346C40.6954 5.91469 40.6384 5.85758 40.5696 5.8179L30.5965 0.0596339C30.5277 0.020549 30.4499 0 30.3708 0C30.2917 0 30.214 0.020549 30.1452 0.0596339L0.225668 17.329C0.156258 17.3693 0.0987914 17.4273 0.0591466 17.4971C0.0195018 17.5668 -0.000899135 17.6459 3.04021e-05 17.7261V63.7905C0.000237602 63.8697 0.0211686 63.9476 0.0607479 64.0163C0.100327 64.085 0.15718 64.1422 0.225668 64.1822L10.1988 69.9386C10.2672 69.979 10.3451 70.0002 10.4245 70C10.5039 70.0004 10.5819 69.9792 10.6501 69.9386L20.6233 64.1822C20.692 64.1425 20.7491 64.0854 20.7887 64.0166C20.8283 63.9478 20.8491 63.8698 20.8489 63.7905V52.5284L40.5696 41.1563C40.6385 41.1168 40.6956 41.0597 40.7353 40.9909C40.7749 40.9221 40.7956 40.844 40.7953 40.7646V6.20961ZM39.8927 39.9758L33.0911 36.0479L30.8221 34.7392V1.23295L39.8927 6.46773V39.9758ZM19.9464 52.5284V62.998L13.143 59.0809L10.8757 57.7723V47.2937L19.9464 52.5284ZM29.9195 1.23295V34.7392L10.1988 46.1258C10.1305 46.1654 10.0737 46.2223 10.0341 46.2907C9.99455 46.3591 9.97354 46.4366 9.9732 46.5157V57.7723L7.706 59.0809L0.90258 63.0088V17.9861L29.9195 1.23295ZM10.4245 69.027L1.35385 63.7923L8.15727 59.8644L10.4245 58.5557L12.6917 59.8644L19.4951 63.7905L10.4245 69.027ZM20.3976 51.7541L11.327 46.5193L30.3708 35.5244L32.6398 36.8241L39.4414 40.752L20.3976 51.7541Z" fill="black"/>
<path d="M9.97266 34.9993C9.97268 35.0786 9.99354 35.1565 10.0331 35.2253C10.0727 35.294 10.1297 35.3512 10.1983 35.391C10.2671 35.4301 10.3448 35.4506 10.4239 35.4506C10.503 35.4506 10.5808 35.4301 10.6496 35.391L20.6227 29.6327C20.6913 29.5933 20.7483 29.5365 20.7879 29.4681C20.8275 29.3996 20.8484 29.3219 20.8484 29.2428V17.7263C20.8497 17.646 20.8294 17.5668 20.7898 17.4969C20.7501 17.4271 20.6924 17.3692 20.6227 17.3292C20.554 17.2901 20.4762 17.2695 20.3971 17.2695C20.318 17.2695 20.2402 17.2901 20.1715 17.3292L10.1983 23.0928C10.1297 23.1327 10.0727 23.1898 10.0331 23.2585C9.99354 23.3273 9.97268 23.4052 9.97266 23.4846V34.9993ZM10.8752 24.2662L19.4946 29.2428L10.8752 34.2177V24.2662ZM19.9458 28.4612L11.3265 23.4846L19.9458 18.5079V28.4612Z" fill="black"/>
</svg>
