<svg width="20" height="34" fill="none" xmlns="http://www.w3.org/2000/svg"><path d="m5.134 33.853 14.596-8.427-4.865-2.809L.269 31.044l4.865 2.81z" fill="#fff"/><path   d="M14.791 22.49a.147.147 0 0 1 .147 0l4.866 2.81a.147.147 0 0 1 0 .254L5.208 33.98a.146.146 0 0 1-.147 0L.195 31.171a.147.147 0 0 1 0-.254l14.596-8.427zM.563 31.044l4.571 2.64 14.302-8.258-4.571-2.64L.563 31.045z" fill="#000"/><path d="M9.998 19.81 14.865 17v5.617L.269 31.044v-5.617l4.866-2.808" fill="#fff"/><path   d="M14.938 16.873a.147.147 0 0 1 .074.127v5.617c0 .053-.028.101-.074.127L.342 31.171a.147.147 0 0 1-.22-.127v-5.617c0-.052.028-.1.074-.127l4.866-2.809a.147.147 0 0 1 .147.255L.416 25.512v5.278l14.302-8.258v-5.277l-4.646 2.682a.147.147 0 1 1-.147-.254l4.866-2.81a.147.147 0 0 1 .147 0z" fill="#000"/><path d="M19.73 25.426V19.81L14.865 17v5.617l4.865 2.81z" fill="#fff"/><path   d="M14.791 16.873a.147.147 0 0 1 .147 0l4.866 2.81a.147.147 0 0 1 .073.126v5.617a.147.147 0 0 1-.22.128l-4.866-2.81a.147.147 0 0 1-.073-.127V17c0-.052.028-.1.073-.127zm.22.382v5.277l4.572 2.64v-5.278l-4.571-2.64z" fill="#000"/><path d="M5.134 17 19.73 8.573l-4.865-2.81L.269 14.192 5.134 17z" fill="#fff"/><path   d="M14.791 5.637a.147.147 0 0 1 .147 0l4.866 2.809a.147.147 0 0 1 0 .254L5.208 17.127a.146.146 0 0 1-.147 0l-4.866-2.81a.147.147 0 0 1 0-.253l14.596-8.427zM.563 14.19l4.571 2.64 14.302-8.258-4.571-2.64L.563 14.191z" fill="#000"/><path d="M14.865.147v5.617L.269 14.19V8.574L14.865.147z" fill="#fff"/><path   d="M14.938.02a.147.147 0 0 1 .074.127v5.617c0 .052-.028.1-.074.127L.342 14.318a.146.146 0 0 1-.22-.127V8.574c0-.053.028-.101.073-.128L14.792.02a.147.147 0 0 1 .146 0zm-.22.381L.416 8.658v5.278L14.718 5.68V.401z" fill="#000"/><path d="M19.73 8.573V2.956L14.865.146v5.618l4.865 2.809z" fill="#fff"/><path   d="M14.791.02a.147.147 0 0 1 .147 0l4.866 2.809a.147.147 0 0 1 .073.127v5.617a.147.147 0 0 1-.22.127L14.79 5.89a.147.147 0 0 1-.073-.126V.147c0-.053.028-.101.073-.127zm.22.381V5.68l4.572 2.64V3.04L15.012.4z" fill="#000"/><path d="m10 8.574 4.865 2.808V17l-4.866 2.806V8.574z" fill="#fff"/><path   d="M9.926 8.447a.147.147 0 0 1 .147 0l4.865 2.808a.147.147 0 0 1 .074.127V17a.147.147 0 0 1-.074.127l-4.865 2.806a.147.147 0 0 1-.22-.127V8.574c0-.053.027-.101.073-.127zm.22.381v10.724l4.572-2.637v-5.448l-4.572-2.639z" fill="#000"/><path d="m10 8.574-4.866 2.808.003 11.235 4.862-2.81V8.573z" fill="#fff"/><path   d="M10.073 8.447a.147.147 0 0 1 .073.127v11.232c0 .053-.028.101-.073.127L5.21 22.744a.147.147 0 0 1-.22-.127l-.004-11.235c0-.053.028-.101.074-.127l4.865-2.808a.147.147 0 0 1 .147 0zm-4.792 3.02.003 10.896 4.568-2.641V8.828l-4.571 2.639z" fill="#000"/></svg>