<?xml version="1.0" standalone="no"?>
<!DOCTYPE svg PUBLIC "-//W3C//DTD SVG 20010904//EN"
 "http://www.w3.org/TR/2001/REC-SVG-20010904/DTD/svg10.dtd">
<svg version="1.0" xmlns="http://www.w3.org/2000/svg"
 width="1120.000000pt" height="1120.000000pt" viewBox="0 0 1120.000000 1120.000000"
 preserveAspectRatio="xMidYMid meet">
<metadata>
Created by potrace 1.14, written by Peter Selinger 2001-2017
</metadata>
<g transform="translate(0.000000,1120.000000) scale(0.100000,-0.100000)"
fill="#000000" stroke="none">
<path d="M4750 9810 c-1322 -764 -2410 -1397 -2417 -1406 -11 -14 -13 -732
-13 -3725 0 -3516 1 -3708 18 -3727 22 -28 1625 -952 1650 -952 10 0 83 37
163 83 1160 667 1487 859 1498 883 8 18 11 270 11 928 l0 904 1568 903 c862
497 1579 916 1595 931 l27 26 0 2776 c0 1673 -4 2784 -9 2799 -7 18 -81 65
-278 179 -1124 650 -1367 788 -1386 787 -12 0 -1104 -625 -2427 -1389z m2360
-1488 l0 -2679 -1582 -913 c-871 -502 -1587 -917 -1593 -922 -6 -6 -12 -335
-15 -930 l-5 -922 -720 -416 c-396 -230 -723 -414 -728 -410 -4 3 -6 1623 -5
3599 l3 3593 2315 1338 c1273 736 2318 1339 2323 1339 4 1 7 -1204 7 -2677z
m873 2259 l717 -414 0 -2679 c0 -1474 -4 -2678 -9 -2676 -4 2 -330 189 -725
417 l-716 414 0 2679 c0 1474 4 2678 8 2676 5 -1 331 -189 725 -417z m-370
-5314 c232 -134 554 -319 715 -412 161 -93 291 -172 290 -177 -2 -6 -1440
-839 -2944 -1706 l-91 -52 -722 416 c-417 241 -718 421 -713 426 17 17 3017
1747 3030 1747 8 1 203 -108 435 -242z m-2820 -2057 l717 -413 0 -838 0 -838
-242 140 c-134 77 -460 264 -725 417 l-483 277 0 838 c0 461 3 836 8 834 4 -2
330 -190 725 -417z m-81 -1796 c389 -225 708 -413 709 -419 2 -9 -1382 -817
-1423 -830 -10 -4 -279 146 -730 406 -392 226 -716 414 -720 418 -9 8 1433
842 1447 837 6 -2 328 -188 717 -412z"/>
<path d="M5538 8420 c-102 -54 -1585 -915 -1600 -928 -17 -14 -18 -73 -18
-973 l0 -958 22 -15 c12 -9 34 -16 48 -16 37 1 1642 931 1657 961 17 32 19
1850 3 1896 -9 26 -44 53 -68 53 -4 0 -24 -9 -44 -20z m-28 -980 l0 -791 -22
12 c-79 42 -1325 764 -1336 773 -10 10 128 94 665 404 373 215 681 392 686
392 4 0 7 -356 7 -790z m-759 -522 c374 -215 679 -394 679 -397 0 -5 -1337
-780 -1361 -789 -5 -2 -9 323 -9 787 0 435 3 791 6 791 4 0 312 -176 685 -392z"/>
</g>
</svg>
